<svg xmlns="http://www.w3.org/2000/svg" viewBox="0 0 1098 1210" width="1098" height="1210"><defs><style type="text/css">@import url('https://fonts.googleapis.com/css?family=Roboto+Mono:400|Roboto:400,&amp;subset=cyrillic,cyrillic-ext,greek,greek-ext,latin-ext')</style></defs><rect x="0" y="0" width="1098" height="1210" fill="#ffffff"/><g transform="translate(45,45)"><g><g><g transform="translate(336, 0)"><path d="M31.5 28 L112 28 L192.5 28 C194.5 28 196 29.5 196 31.5 L196 64 L196 96.5 C196 98.5 194.5 100 192.5 100 L112 100 L31.5 100 C29.5 100 28 98.5 28 96.5 L28 64 L28 31.5 C28 29.5 29.5 28 31.5 28 Z" fill="#ffffff" stroke="#4d9ef6" stroke-width="2"/><g transform="translate(36, 34)"><text font-size="14" font-family="Roboto,sans-serif" x="76" y="35" text-anchor="middle" fill="#52565f">Splash Screen</text></g></g><g transform="translate(560, 96)"><path d="M31.5 28 L112 28 L192.5 28 C194.5 28 196 29.5 196 31.5 L196 64 L196 96.5 C196 98.5 194.5 100 192.5 100 L112 100 L31.5 100 C29.5 100 28 98.5 28 96.5 L28 64 L28 31.5 C28 29.5 29.5 28 31.5 28 Z" fill="#ffffff" stroke="#4d9ef6" stroke-width="2"/><g transform="translate(36, 34)"><text font-size="14" font-family="Roboto,sans-serif" x="76" y="35" text-anchor="middle" fill="#52565f">Onboarding screens</text></g></g><g transform="translate(336, 224)"><path d="M68.5 44.5 L110 27 A4.846153846153847 4.846153846153847 0 0 1 114 27 L155.5 44.5 L197 62 A2.1724137931034484 2.1724137931034484 0 0 1 197 66 L155.5 83.5 L114 101 A4.846153846153847 4.846153846153847 0 0 1 110 101 L68.5 83.5 L27 66 A2.1724137931034484 2.1724137931034484 0 0 1 27 62 Z" fill="#ffffff" stroke="#4d9ef6" stroke-width="2"/><g transform="translate(64.5, 44)"><text font-size="14" font-family="Roboto,sans-serif" x="47.5" y="25" text-anchor="middle" fill="#52565f">Signup/Login</text></g></g><g transform="translate(336, 352)"><path d="M31.5 28 L112 28 L192.5 28 C194.5 28 196 29.5 196 31.5 L196 64 L196 96.5 C196 98.5 194.5 100 192.5 100 L112 100 L31.5 100 C29.5 100 28 98.5 28 96.5 L28 64 L28 31.5 C28 29.5 29.5 28 31.5 28 Z" fill="#ffffff" stroke="#4d9ef6" stroke-width="2"/><g transform="translate(36, 34)"><text font-size="14" font-family="Roboto,sans-serif" x="76" y="35" text-anchor="middle" fill="#52565f">Discover Page</text></g></g><g transform="translate(224, 480)"><path d="M31.5 28 L112 28 L192.5 28 C194.5 28 196 29.5 196 31.5 L196 64 L196 96.5 C196 98.5 194.5 100 192.5 100 L112 100 L31.5 100 C29.5 100 28 98.5 28 96.5 L28 64 L28 31.5 C28 29.5 29.5 28 31.5 28 Z" fill="#ffffff" stroke="#4d9ef6" stroke-width="2"/><g transform="translate(36, 34)"><text font-size="14" font-family="Roboto,sans-serif" x="76" y="35" text-anchor="middle" fill="#52565f">Local Dish Suggestions</text></g></g><g transform="translate(0, 480)"><path d="M31.5 28 L112 28 L192.5 28 C194.5 28 196 29.5 196 31.5 L196 64 L196 96.5 C196 98.5 194.5 100 192.5 100 L112 100 L31.5 100 C29.5 100 28 98.5 28 96.5 L28 64 L28 31.5 C28 29.5 29.5 28 31.5 28 Z" fill="#ffffff" stroke="#4d9ef6" stroke-width="2"/><g transform="translate(36, 34)"><text font-size="14" font-family="Roboto,sans-serif" x="76" y="35" text-anchor="middle" fill="#52565f">User Profile</text></g></g><g transform="translate(448, 480)"><path d="M31.5 28 L112 28 L192.5 28 C194.5 28 196 29.5 196 31.5 L196 64 L196 96.5 C196 98.5 194.5 100 192.5 100 L112 100 L31.5 100 C29.5 100 28 98.5 28 96.5 L28 64 L28 31.5 C28 29.5 29.5 28 31.5 28 Z" fill="#ffffff" stroke="#4d9ef6" stroke-width="2"/><g transform="translate(36, 34)"><text font-size="14" font-family="Roboto,sans-serif" x="76" y="35" text-anchor="middle" fill="#52565f">Food/Restaurant Search</text></g></g><g transform="translate(672, 480)"><path d="M31.5 28 L112 28 L192.5 28 C194.5 28 196 29.5 196 31.5 L196 64 L196 96.5 C196 98.5 194.5 100 192.5 100 L112 100 L31.5 100 C29.5 100 28 98.5 28 96.5 L28 64 L28 31.5 C28 29.5 29.5 28 31.5 28 Z" fill="#ffffff" stroke="#4d9ef6" stroke-width="2"/><g transform="translate(36, 34)"><text font-size="14" font-family="Roboto,sans-serif" x="76" y="35" text-anchor="middle" fill="#52565f">Nearby Restaurants List</text></g></g><g transform="translate(448, 864)"><path d="M31.5 28 L112 28 L192.5 28 C194.5 28 196 29.5 196 31.5 L196 64 L196 96.5 C196 98.5 194.5 100 192.5 100 L112 100 L31.5 100 C29.5 100 28 98.5 28 96.5 L28 64 L28 31.5 C28 29.5 29.5 28 31.5 28 Z" fill="#ffffff" stroke="#4d9ef6" stroke-width="2"/><g transform="translate(36, 34)"><text font-size="14" font-family="Roboto,sans-serif" x="76" y="35" text-anchor="middle" fill="#52565f">Restaurant Details</text></g></g><g transform="translate(448, 608)"><path d="M31.5 28 L112 28 L192.5 28 C194.5 28 196 29.5 196 31.5 L196 64 L196 96.5 C196 98.5 194.5 100 192.5 100 L112 100 L31.5 100 C29.5 100 28 98.5 28 96.5 L28 64 L28 31.5 C28 29.5 29.5 28 31.5 28 Z" fill="#ffffff" stroke="#4d9ef6" stroke-width="2"/><g transform="translate(36, 34)"><text font-size="14" font-family="Roboto,sans-serif" x="76" y="35" text-anchor="middle" fill="#52565f">Restaurant List</text></g></g><g transform="translate(112, 992)"><path d="M64 28 L112 28 L160 28 C182 28 196 42 196 64 L196 64 L196 64 C196 86 182 100 160 100 L112 100 L64 100 C42 100 28 86 28 64 L28 64 L28 64 C28 42 42 28 64 28 Z" fill="#ffffff" stroke="#4d9ef6" stroke-width="2"/><g transform="translate(36, 34)"><text font-size="14" font-family="Roboto,sans-serif" x="76" y="35" text-anchor="middle" fill="#52565f">Overview</text></g></g><g transform="translate(336, 992)"><path d="M64 28 L112 28 L160 28 C182 28 196 42 196 64 L196 64 L196 64 C196 86 182 100 160 100 L112 100 L64 100 C42 100 28 86 28 64 L28 64 L28 64 C28 42 42 28 64 28 Z" fill="#ffffff" stroke="#4d9ef6" stroke-width="2"/><g transform="translate(36, 34)"><text font-size="14" font-family="Roboto,sans-serif" x="76" y="35" text-anchor="middle" fill="#52565f">Photos</text></g></g><g transform="translate(560, 992)"><path d="M64 28 L112 28 L160 28 C182 28 196 42 196 64 L196 64 L196 64 C196 86 182 100 160 100 L112 100 L64 100 C42 100 28 86 28 64 L28 64 L28 64 C28 42 42 28 64 28 Z" fill="#ffffff" stroke="#4d9ef6" stroke-width="2"/><g transform="translate(36, 34)"><text font-size="14" font-family="Roboto,sans-serif" x="76" y="35" text-anchor="middle" fill="#52565f">Review</text></g></g><g transform="translate(560, 224)"><path d="M31.5 28 L112 28 L192.5 28 C194.5 28 196 29.5 196 31.5 L196 64 L196 96.5 C196 98.5 194.5 100 192.5 100 L112 100 L31.5 100 C29.5 100 28 98.5 28 96.5 L28 64 L28 31.5 C28 29.5 29.5 28 31.5 28 Z" fill="#ffffff" stroke="#4d9ef6" stroke-width="2"/><g transform="translate(36, 34)"><text font-size="14" font-family="Roboto,sans-serif" x="76" y="35" text-anchor="middle" fill="#52565f">Exit</text></g></g><g transform="translate(224, 608)"><path d="M64 28 L112 28 L160 28 C182 28 196 42 196 64 L196 64 L196 64 C196 86 182 100 160 100 L112 100 L64 100 C42 100 28 86 28 64 L28 64 L28 64 C28 42 42 28 64 28 Z" fill="#ffffff" stroke="#4d9ef6" stroke-width="2"/><g transform="translate(36, 34)"><text font-size="14" font-family="Roboto,sans-serif" x="76" y="35" text-anchor="middle" fill="#52565f">Dish Overview</text></g></g><g transform="translate(0, 608)"><path d="M64 28 L112 28 L160 28 C182 28 196 42 196 64 L196 64 L196 64 C196 86 182 100 160 100 L112 100 L64 100 C42 100 28 86 28 64 L28 64 L28 64 C28 42 42 28 64 28 Z" fill="#ffffff" stroke="#4d9ef6" stroke-width="2"/><g transform="translate(36, 34)"><text font-size="14" font-family="Roboto,sans-serif" x="76" y="25" text-anchor="middle" fill="#52565f">Change Location/Revie</text><text font-size="14" font-family="Roboto,sans-serif" x="76" y="45" text-anchor="middle" fill="#52565f">ws/SignOut/Settings</text></g></g><g transform="translate(784, 992)"><path d="M64 28 L112 28 L160 28 C182 28 196 42 196 64 L196 64 L196 64 C196 86 182 100 160 100 L112 100 L64 100 C42 100 28 86 28 64 L28 64 L28 64 C28 42 42 28 64 28 Z" fill="#ffffff" stroke="#4d9ef6" stroke-width="2"/><g transform="translate(36, 34)"><text font-size="14" font-family="Roboto,sans-serif" x="76" y="35" text-anchor="middle" fill="#52565f">Direction</text></g></g><g transform="translate(336, 736)"><path d="M49.5 28 L112 28 L174.5 28 A3 3 0 0 1 177.5 30 L186.75 64 L195.5 97 A3 3 0 0 1 193 100 L112 100 L31 100 A3 3 0 0 1 28.5 97 L37.25 64 L46.5 30 A3 3 0 0 1 49.5 28 Z" fill="#ffffff" stroke="#58A8F7" stroke-width="2"/><g transform="translate(43, 34)"><text font-size="14" font-family="Roboto,sans-serif" x="69" y="35" text-anchor="middle" fill="#52565f">List View</text></g></g><g transform="translate(560, 736)"><path d="M49.5 28 L112 28 L174.5 28 A3 3 0 0 1 177.5 30 L186.75 64 L195.5 97 A3 3 0 0 1 193 100 L112 100 L31 100 A3 3 0 0 1 28.5 97 L37.25 64 L46.5 30 A3 3 0 0 1 49.5 28 Z" fill="#FFFFFF" stroke="#4d9ef6" stroke-width="2"/><g transform="translate(43, 34)"><text font-size="14" font-family="Roboto,sans-serif" x="69" y="35" text-anchor="middle" fill="#52565F">Map View</text></g></g></g><g><g><path fill="none" stroke="#4d9ef6" stroke-width="2" stroke-dasharray="0px 0px" d="M 448,101L 448,128L 448,224L 448,247.5"/><path transform="translate( 451, 103 ) rotate( 180 )" d="M3 6C4.65685 6 6 4.65685 6 3C6 1.34315 4.65685 0 3 0C1.34315 0 0 1.34315 0 3C0 4.65685 1.34315 6 3 6Z" fill="#4d9ef6"/><path transform="translate( 455, 249.5 ) rotate( 540 )" d="M6.34003 0.275664C6.70452 -0.0918881 7.29548 -0.0918881 7.65997 0.275664L13.7266 6.39331C14.0911 6.76086 14.0911 7.35678 13.7266 7.72434C13.3621 8.09189 12.7712 8.09189 12.4067 7.72434L7 2.2722L1.5933 7.72434C1.22881 8.09189 0.637856 8.09189 0.273367 7.72434C-0.0911224 7.35678 -0.0911224 6.76086 0.273367 6.39331L6.34003 0.275664Z" fill="#4d9ef6"/></g><g><path fill="none" stroke="#4d9ef6" stroke-width="2" stroke-dasharray="0px 0px" d="M 533,64L 560,64L 662,64Q672,64 672,74L 672,96L 672,121"/><path transform="translate( 535, 61 ) rotate( 450 )" d="M3 6C4.65685 6 6 4.65685 6 3C6 1.34315 4.65685 0 3 0C1.34315 0 0 1.34315 0 3C0 4.65685 1.34315 6 3 6Z" fill="#4d9ef6"/><path transform="translate( 679, 123 ) rotate( 540 )" d="M6.34003 0.275664C6.70452 -0.0918881 7.29548 -0.0918881 7.65997 0.275664L13.7266 6.39331C14.0911 6.76086 14.0911 7.35678 13.7266 7.72434C13.3621 8.09189 12.7712 8.09189 12.4067 7.72434L7 2.2722L1.5933 7.72434C1.22881 8.09189 0.637856 8.09189 0.273367 7.72434C-0.0911224 7.35678 -0.0911224 6.76086 0.273367 6.39331L6.34003 0.275664Z" fill="#4d9ef6"/></g><g><path fill="none" stroke="#4d9ef6" stroke-width="2" stroke-dasharray="0px 0px" d="M 672,197L 672,214Q672,224 662,224L 458,224Q448,224 448,234L 448,247.5"/><path transform="translate( 675, 199 ) rotate( 180 )" d="M3 6C4.65685 6 6 4.65685 6 3C6 1.34315 4.65685 0 3 0C1.34315 0 0 1.34315 0 3C0 4.65685 1.34315 6 3 6Z" fill="#4d9ef6"/><path transform="translate( 455, 249.5 ) rotate( 540 )" d="M6.34003 0.275664C6.70452 -0.0918881 7.29548 -0.0918881 7.65997 0.275664L13.7266 6.39331C14.0911 6.76086 14.0911 7.35678 13.7266 7.72434C13.3621 8.09189 12.7712 8.09189 12.4067 7.72434L7 2.2722L1.5933 7.72434C1.22881 8.09189 0.637856 8.09189 0.273367 7.72434C-0.0911224 7.35678 -0.0911224 6.76086 0.273367 6.39331L6.34003 0.275664Z" fill="#4d9ef6"/></g><g><path fill="none" stroke="#4d9ef6" stroke-width="2" stroke-dasharray="0px 0px" d="M 448,326.5L 448,352L 448,352L 448,377"/><path transform="translate( 451, 328.5 ) rotate( 180 )" d="M3 6C4.65685 6 6 4.65685 6 3C6 1.34315 4.65685 0 3 0C1.34315 0 0 1.34315 0 3C0 4.65685 1.34315 6 3 6Z" fill="#4d9ef6"/><path transform="translate( 455, 379 ) rotate( 540 )" d="M6.34003 0.275664C6.70452 -0.0918881 7.29548 -0.0918881 7.65997 0.275664L13.7266 6.39331C14.0911 6.76086 14.0911 7.35678 13.7266 7.72434C13.3621 8.09189 12.7712 8.09189 12.4067 7.72434L7 2.2722L1.5933 7.72434C1.22881 8.09189 0.637856 8.09189 0.273367 7.72434C-0.0911224 7.35678 -0.0911224 6.76086 0.273367 6.39331L6.34003 0.275664Z" fill="#4d9ef6"/></g><g><path fill="none" stroke="#4d9ef6" stroke-width="2" stroke-dasharray="0px 0px" d="M 535,288L 560,288L 560,288L 585,288"/><path transform="translate( 537, 285 ) rotate( 450 )" d="M3 6C4.65685 6 6 4.65685 6 3C6 1.34315 4.65685 0 3 0C1.34315 0 0 1.34315 0 3C0 4.65685 1.34315 6 3 6Z" fill="#4d9ef6"/><path transform="translate( 587, 281 ) rotate( 450 )" d="M6.34003 0.275664C6.70452 -0.0918881 7.29548 -0.0918881 7.65997 0.275664L13.7266 6.39331C14.0911 6.76086 14.0911 7.35678 13.7266 7.72434C13.3621 8.09189 12.7712 8.09189 12.4067 7.72434L7 2.2722L1.5933 7.72434C1.22881 8.09189 0.637856 8.09189 0.273367 7.72434C-0.0911224 7.35678 -0.0911224 6.76086 0.273367 6.39331L6.34003 0.275664Z" fill="#4d9ef6"/></g><g><path fill="none" stroke="#4d9ef6" stroke-width="2" stroke-dasharray="0px 0px" d="M 448,453L 448,470Q448,480 438,480L 122,480Q112,480 112,490L 112,505"/><path transform="translate( 451, 455 ) rotate( 180 )" d="M3 6C4.65685 6 6 4.65685 6 3C6 1.34315 4.65685 0 3 0C1.34315 0 0 1.34315 0 3C0 4.65685 1.34315 6 3 6Z" fill="#4d9ef6"/><path transform="translate( 119, 507 ) rotate( 540 )" d="M6.34003 0.275664C6.70452 -0.0918881 7.29548 -0.0918881 7.65997 0.275664L13.7266 6.39331C14.0911 6.76086 14.0911 7.35678 13.7266 7.72434C13.3621 8.09189 12.7712 8.09189 12.4067 7.72434L7 2.2722L1.5933 7.72434C1.22881 8.09189 0.637856 8.09189 0.273367 7.72434C-0.0911224 7.35678 -0.0911224 6.76086 0.273367 6.39331L6.34003 0.275664Z" fill="#4d9ef6"/></g><g><path fill="none" stroke="#4d9ef6" stroke-width="2" stroke-dasharray="0px 0px" d="M 448,453L 448,470Q448,480 458,480L 550,480Q560,480 560,490L 560,505"/><path transform="translate( 451, 455 ) rotate( 180 )" d="M3 6C4.65685 6 6 4.65685 6 3C6 1.34315 4.65685 0 3 0C1.34315 0 0 1.34315 0 3C0 4.65685 1.34315 6 3 6Z" fill="#4d9ef6"/><path transform="translate( 567, 507 ) rotate( 540 )" d="M6.34003 0.275664C6.70452 -0.0918881 7.29548 -0.0918881 7.65997 0.275664L13.7266 6.39331C14.0911 6.76086 14.0911 7.35678 13.7266 7.72434C13.3621 8.09189 12.7712 8.09189 12.4067 7.72434L7 2.2722L1.5933 7.72434C1.22881 8.09189 0.637856 8.09189 0.273367 7.72434C-0.0911224 7.35678 -0.0911224 6.76086 0.273367 6.39331L6.34003 0.275664Z" fill="#4d9ef6"/></g><g><path fill="none" stroke="#4d9ef6" stroke-width="2" stroke-dasharray="0px 0px" d="M 448,453L 448,470Q448,480 458,480L 774,480Q784,480 784,490L 784,505"/><path transform="translate( 451, 455 ) rotate( 180 )" d="M3 6C4.65685 6 6 4.65685 6 3C6 1.34315 4.65685 0 3 0C1.34315 0 0 1.34315 0 3C0 4.65685 1.34315 6 3 6Z" fill="#4d9ef6"/><path transform="translate( 791, 507 ) rotate( 540 )" d="M6.34003 0.275664C6.70452 -0.0918881 7.29548 -0.0918881 7.65997 0.275664L13.7266 6.39331C14.0911 6.76086 14.0911 7.35678 13.7266 7.72434C13.3621 8.09189 12.7712 8.09189 12.4067 7.72434L7 2.2722L1.5933 7.72434C1.22881 8.09189 0.637856 8.09189 0.273367 7.72434C-0.0911224 7.35678 -0.0911224 6.76086 0.273367 6.39331L6.34003 0.275664Z" fill="#4d9ef6"/></g><g><path fill="none" stroke="#4d9ef6" stroke-width="2" stroke-dasharray="0px 0px" d="M 448,453L 448,470Q448,480 438,480L 346,480Q336,480 336,490L 336,505"/><path transform="translate( 451, 455 ) rotate( 180 )" d="M3 6C4.65685 6 6 4.65685 6 3C6 1.34315 4.65685 0 3 0C1.34315 0 0 1.34315 0 3C0 4.65685 1.34315 6 3 6Z" fill="#4d9ef6"/><path transform="translate( 343, 507 ) rotate( 540 )" d="M6.34003 0.275664C6.70452 -0.0918881 7.29548 -0.0918881 7.65997 0.275664L13.7266 6.39331C14.0911 6.76086 14.0911 7.35678 13.7266 7.72434C13.3621 8.09189 12.7712 8.09189 12.4067 7.72434L7 2.2722L1.5933 7.72434C1.22881 8.09189 0.637856 8.09189 0.273367 7.72434C-0.0911224 7.35678 -0.0911224 6.76086 0.273367 6.39331L6.34003 0.275664Z" fill="#4d9ef6"/></g><g><path fill="none" stroke="#4d9ef6" stroke-width="2" stroke-dasharray="0px 0px" d="M 336,581L 336,608L 336,608L 336,633"/><path transform="translate( 339, 583 ) rotate( 180 )" d="M3 6C4.65685 6 6 4.65685 6 3C6 1.34315 4.65685 0 3 0C1.34315 0 0 1.34315 0 3C0 4.65685 1.34315 6 3 6Z" fill="#4d9ef6"/><path transform="translate( 343, 635 ) rotate( 540 )" d="M6.34003 0.275664C6.70452 -0.0918881 7.29548 -0.0918881 7.65997 0.275664L13.7266 6.39331C14.0911 6.76086 14.0911 7.35678 13.7266 7.72434C13.3621 8.09189 12.7712 8.09189 12.4067 7.72434L7 2.2722L1.5933 7.72434C1.22881 8.09189 0.637856 8.09189 0.273367 7.72434C-0.0911224 7.35678 -0.0911224 6.76086 0.273367 6.39331L6.34003 0.275664Z" fill="#4d9ef6"/></g><g><path fill="none" stroke="#4d9ef6" stroke-width="2" stroke-dasharray="0px 0px" d="M 336,581L 336,598Q336,608 346,608L 550,608Q560,608 560,618L 560,633"/><path transform="translate( 339, 583 ) rotate( 180 )" d="M3 6C4.65685 6 6 4.65685 6 3C6 1.34315 4.65685 0 3 0C1.34315 0 0 1.34315 0 3C0 4.65685 1.34315 6 3 6Z" fill="#4d9ef6"/><path transform="translate( 567, 635 ) rotate( 540 )" d="M6.34003 0.275664C6.70452 -0.0918881 7.29548 -0.0918881 7.65997 0.275664L13.7266 6.39331C14.0911 6.76086 14.0911 7.35678 13.7266 7.72434C13.3621 8.09189 12.7712 8.09189 12.4067 7.72434L7 2.2722L1.5933 7.72434C1.22881 8.09189 0.637856 8.09189 0.273367 7.72434C-0.0911224 7.35678 -0.0911224 6.76086 0.273367 6.39331L6.34003 0.275664Z" fill="#4d9ef6"/></g><g><path fill="none" stroke="#4d9ef6" stroke-width="2" stroke-dasharray="0px 0px" d="M 112,581L 112,608L 112,608L 112,633"/><path transform="translate( 115, 583 ) rotate( 180 )" d="M3 6C4.65685 6 6 4.65685 6 3C6 1.34315 4.65685 0 3 0C1.34315 0 0 1.34315 0 3C0 4.65685 1.34315 6 3 6Z" fill="#4d9ef6"/><path transform="translate( 119, 635 ) rotate( 540 )" d="M6.34003 0.275664C6.70452 -0.0918881 7.29548 -0.0918881 7.65997 0.275664L13.7266 6.39331C14.0911 6.76086 14.0911 7.35678 13.7266 7.72434C13.3621 8.09189 12.7712 8.09189 12.4067 7.72434L7 2.2722L1.5933 7.72434C1.22881 8.09189 0.637856 8.09189 0.273367 7.72434C-0.0911224 7.35678 -0.0911224 6.76086 0.273367 6.39331L6.34003 0.275664Z" fill="#4d9ef6"/></g><g><path fill="none" stroke="#4d9ef6" stroke-width="2" stroke-dasharray="0px 0px" d="M 560,581L 560,608L 560,608L 560,633"/><path transform="translate( 563, 583 ) rotate( 180 )" d="M3 6C4.65685 6 6 4.65685 6 3C6 1.34315 4.65685 0 3 0C1.34315 0 0 1.34315 0 3C0 4.65685 1.34315 6 3 6Z" fill="#4d9ef6"/><path transform="translate( 567, 635 ) rotate( 540 )" d="M6.34003 0.275664C6.70452 -0.0918881 7.29548 -0.0918881 7.65997 0.275664L13.7266 6.39331C14.0911 6.76086 14.0911 7.35678 13.7266 7.72434C13.3621 8.09189 12.7712 8.09189 12.4067 7.72434L7 2.2722L1.5933 7.72434C1.22881 8.09189 0.637856 8.09189 0.273367 7.72434C-0.0911224 7.35678 -0.0911224 6.76086 0.273367 6.39331L6.34003 0.275664Z" fill="#4d9ef6"/></g><g><path fill="none" stroke="#4d9ef6" stroke-width="2" stroke-dasharray="0px 0px" d="M 784,581L 784,598Q784,608 774,608L 570,608Q560,608 560,618L 560,633"/><path transform="translate( 787, 583 ) rotate( 180 )" d="M3 6C4.65685 6 6 4.65685 6 3C6 1.34315 4.65685 0 3 0C1.34315 0 0 1.34315 0 3C0 4.65685 1.34315 6 3 6Z" fill="#4d9ef6"/><path transform="translate( 567, 635 ) rotate( 540 )" d="M6.34003 0.275664C6.70452 -0.0918881 7.29548 -0.0918881 7.65997 0.275664L13.7266 6.39331C14.0911 6.76086 14.0911 7.35678 13.7266 7.72434C13.3621 8.09189 12.7712 8.09189 12.4067 7.72434L7 2.2722L1.5933 7.72434C1.22881 8.09189 0.637856 8.09189 0.273367 7.72434C-0.0911224 7.35678 -0.0911224 6.76086 0.273367 6.39331L6.34003 0.275664Z" fill="#4d9ef6"/></g><g><path fill="none" stroke="#4d9ef6" stroke-width="2" stroke-dasharray="0px 0px" d="M 560,965L 560,982Q560,992 550,992L 234,992Q224,992 224,1002L 224,1017"/><path transform="translate( 563, 967 ) rotate( 180 )" d="M3 6C4.65685 6 6 4.65685 6 3C6 1.34315 4.65685 0 3 0C1.34315 0 0 1.34315 0 3C0 4.65685 1.34315 6 3 6Z" fill="#4d9ef6"/><path transform="translate( 231, 1019 ) rotate( 540 )" d="M6.34003 0.275664C6.70452 -0.0918881 7.29548 -0.0918881 7.65997 0.275664L13.7266 6.39331C14.0911 6.76086 14.0911 7.35678 13.7266 7.72434C13.3621 8.09189 12.7712 8.09189 12.4067 7.72434L7 2.2722L1.5933 7.72434C1.22881 8.09189 0.637856 8.09189 0.273367 7.72434C-0.0911224 7.35678 -0.0911224 6.76086 0.273367 6.39331L6.34003 0.275664Z" fill="#4d9ef6"/></g><g><path fill="none" stroke="#4d9ef6" stroke-width="2" stroke-dasharray="0px 0px" d="M 560,965L 560,982Q560,992 550,992L 458,992Q448,992 448,1002L 448,1017"/><path transform="translate( 563, 967 ) rotate( 180 )" d="M3 6C4.65685 6 6 4.65685 6 3C6 1.34315 4.65685 0 3 0C1.34315 0 0 1.34315 0 3C0 4.65685 1.34315 6 3 6Z" fill="#4d9ef6"/><path transform="translate( 455, 1019 ) rotate( 540 )" d="M6.34003 0.275664C6.70452 -0.0918881 7.29548 -0.0918881 7.65997 0.275664L13.7266 6.39331C14.0911 6.76086 14.0911 7.35678 13.7266 7.72434C13.3621 8.09189 12.7712 8.09189 12.4067 7.72434L7 2.2722L1.5933 7.72434C1.22881 8.09189 0.637856 8.09189 0.273367 7.72434C-0.0911224 7.35678 -0.0911224 6.76086 0.273367 6.39331L6.34003 0.275664Z" fill="#4d9ef6"/></g><g><path fill="none" stroke="#4d9ef6" stroke-width="2" stroke-dasharray="0px 0px" d="M 560,965L 560,982Q560,992 570,992L 662,992Q672,992 672,1002L 672,1017"/><path transform="translate( 563, 967 ) rotate( 180 )" d="M3 6C4.65685 6 6 4.65685 6 3C6 1.34315 4.65685 0 3 0C1.34315 0 0 1.34315 0 3C0 4.65685 1.34315 6 3 6Z" fill="#4d9ef6"/><path transform="translate( 679, 1019 ) rotate( 540 )" d="M6.34003 0.275664C6.70452 -0.0918881 7.29548 -0.0918881 7.65997 0.275664L13.7266 6.39331C14.0911 6.76086 14.0911 7.35678 13.7266 7.72434C13.3621 8.09189 12.7712 8.09189 12.4067 7.72434L7 2.2722L1.5933 7.72434C1.22881 8.09189 0.637856 8.09189 0.273367 7.72434C-0.0911224 7.35678 -0.0911224 6.76086 0.273367 6.39331L6.34003 0.275664Z" fill="#4d9ef6"/></g><g><path fill="none" stroke="#4d9ef6" stroke-width="2" stroke-dasharray="0px 0px" d="M 560,965L 560,982Q560,992 570,992L 886,992Q896,992 896,1002L 896,1017"/><path transform="translate( 563, 967 ) rotate( 180 )" d="M3 6C4.65685 6 6 4.65685 6 3C6 1.34315 4.65685 0 3 0C1.34315 0 0 1.34315 0 3C0 4.65685 1.34315 6 3 6Z" fill="#4d9ef6"/><path transform="translate( 903, 1019 ) rotate( 540 )" d="M6.34003 0.275664C6.70452 -0.0918881 7.29548 -0.0918881 7.65997 0.275664L13.7266 6.39331C14.0911 6.76086 14.0911 7.35678 13.7266 7.72434C13.3621 8.09189 12.7712 8.09189 12.4067 7.72434L7 2.2722L1.5933 7.72434C1.22881 8.09189 0.637856 8.09189 0.273367 7.72434C-0.0911224 7.35678 -0.0911224 6.76086 0.273367 6.39331L6.34003 0.275664Z" fill="#4d9ef6"/></g><g><path fill="none" stroke="#4d9ef6" stroke-width="2" stroke-dasharray="0px 0px" d="M 560,709L 560,726Q560,736 550,736L 458,736Q448,736 448,746L 448,761"/><path transform="translate( 563, 711 ) rotate( 180 )" d="M3 6C4.65685 6 6 4.65685 6 3C6 1.34315 4.65685 0 3 0C1.34315 0 0 1.34315 0 3C0 4.65685 1.34315 6 3 6Z" fill="#4d9ef6"/><path transform="translate( 455, 763 ) rotate( 540 )" d="M6.34003 0.275664C6.70452 -0.0918881 7.29548 -0.0918881 7.65997 0.275664L13.7266 6.39331C14.0911 6.76086 14.0911 7.35678 13.7266 7.72434C13.3621 8.09189 12.7712 8.09189 12.4067 7.72434L7 2.2722L1.5933 7.72434C1.22881 8.09189 0.637856 8.09189 0.273367 7.72434C-0.0911224 7.35678 -0.0911224 6.76086 0.273367 6.39331L6.34003 0.275664Z" fill="#4d9ef6"/></g><g><path fill="none" stroke="#4d9ef6" stroke-width="2" stroke-dasharray="0px 0px" d="M 560,709L 560,726Q560,736 570,736L 662,736Q672,736 672,746L 672,761"/><path transform="translate( 563, 711 ) rotate( 180 )" d="M3 6C4.65685 6 6 4.65685 6 3C6 1.34315 4.65685 0 3 0C1.34315 0 0 1.34315 0 3C0 4.65685 1.34315 6 3 6Z" fill="#4d9ef6"/><path transform="translate( 679, 763 ) rotate( 540 )" d="M6.34003 0.275664C6.70452 -0.0918881 7.29548 -0.0918881 7.65997 0.275664L13.7266 6.39331C14.0911 6.76086 14.0911 7.35678 13.7266 7.72434C13.3621 8.09189 12.7712 8.09189 12.4067 7.72434L7 2.2722L1.5933 7.72434C1.22881 8.09189 0.637856 8.09189 0.273367 7.72434C-0.0911224 7.35678 -0.0911224 6.76086 0.273367 6.39331L6.34003 0.275664Z" fill="#4d9ef6"/></g><g><path fill="none" stroke="#4d9ef6" stroke-width="2" stroke-dasharray="0px 0px" d="M 448,837L 448,854Q448,864 458,864L 550,864Q560,864 560,874L 560,889"/><path transform="translate( 451, 839 ) rotate( 180 )" d="M3 6C4.65685 6 6 4.65685 6 3C6 1.34315 4.65685 0 3 0C1.34315 0 0 1.34315 0 3C0 4.65685 1.34315 6 3 6Z" fill="#4d9ef6"/><path transform="translate( 567, 891 ) rotate( 540 )" d="M6.34003 0.275664C6.70452 -0.0918881 7.29548 -0.0918881 7.65997 0.275664L13.7266 6.39331C14.0911 6.76086 14.0911 7.35678 13.7266 7.72434C13.3621 8.09189 12.7712 8.09189 12.4067 7.72434L7 2.2722L1.5933 7.72434C1.22881 8.09189 0.637856 8.09189 0.273367 7.72434C-0.0911224 7.35678 -0.0911224 6.76086 0.273367 6.39331L6.34003 0.275664Z" fill="#4d9ef6"/></g><g><path fill="none" stroke="#4d9ef6" stroke-width="2" stroke-dasharray="0px 0px" d="M 672,837L 672,854Q672,864 662,864L 570,864Q560,864 560,874L 560,889"/><path transform="translate( 675, 839 ) rotate( 180 )" d="M3 6C4.65685 6 6 4.65685 6 3C6 1.34315 4.65685 0 3 0C1.34315 0 0 1.34315 0 3C0 4.65685 1.34315 6 3 6Z" fill="#4d9ef6"/><path transform="translate( 567, 891 ) rotate( 540 )" d="M6.34003 0.275664C6.70452 -0.0918881 7.29548 -0.0918881 7.65997 0.275664L13.7266 6.39331C14.0911 6.76086 14.0911 7.35678 13.7266 7.72434C13.3621 8.09189 12.7712 8.09189 12.4067 7.72434L7 2.2722L1.5933 7.72434C1.22881 8.09189 0.637856 8.09189 0.273367 7.72434C-0.0911224 7.35678 -0.0911224 6.76086 0.273367 6.39331L6.34003 0.275664Z" fill="#4d9ef6"/></g></g><g><g transform="translate(548, 28)"><rect width="144" height="48" fill="none" stroke="none" stroke-width="2" stroke-dasharray="0px 0px"/><g><g><g transform="translate(16, 16)"><g transform="translate(0, 0)"><text x="0" y="13.3" fill="#52565f" font-size="14" font-variant="" font-family="Roboto,sans-serif" font-weight="400">First Time Users</text></g></g></g></g></g><g transform="translate(340, 140)"><rect width="120" height="48" fill="none" stroke="none" stroke-width="2" stroke-dasharray="0px 0px"/><g><g><g transform="translate(16, 16)"><g transform="translate(0, 0)"><text x="0" y="13.3" fill="#52565f" font-size="14" font-variant="" font-family="Roboto,sans-serif" font-weight="400">Normal Users</text></g></g></g></g></g><g transform="translate(532, 276)"><rect width="64" height="48" fill="none" stroke="none" stroke-width="2" stroke-dasharray="0px 0px"/><g><g><g transform="translate(16, 16)"><g transform="translate(0, 0)"><text x="0" y="13.3" fill="#52565f" font-size="14" font-variant="" font-family="Roboto,sans-serif" font-weight="400">No</text></g></g></g></g></g><g transform="translate(396, 324)"><rect width="64" height="48" fill="none" stroke="none" stroke-width="2" stroke-dasharray="0px 0px"/><g><g><g transform="translate(16, 16)"><g transform="translate(0, 0)"><text x="0" y="13.3" fill="#52565f" font-size="14" font-variant="" font-family="Roboto,sans-serif" font-weight="400">Yes</text></g></g></g></g></g></g></g></g></svg>