<svg width="81" height="81" viewBox="0 0 81 81" fill="none" xmlns="http://www.w3.org/2000/svg">
<path d="M30.7379 47.0805H17.3379C17.1046 47.7471 16.8546 48.4805 16.5879 49.2805C16.3212 50.0471 16.0546 50.8138 15.7879 51.5805C15.5546 52.3138 15.3212 53.0138 15.0879 53.6805C14.8546 54.3138 14.6712 54.8471 14.5379 55.2805C14.0712 55.4805 13.5212 55.5805 12.8879 55.5805C12.3546 55.5805 11.8712 55.4471 11.4379 55.1805C11.0379 54.8805 10.8379 54.4138 10.8379 53.7805C10.8379 53.4805 10.8879 53.1805 10.9879 52.8805C11.0879 52.5471 11.2046 52.1971 11.3379 51.8305C11.8379 50.4305 12.4712 48.6305 13.2379 46.4305C14.0379 44.2305 14.8879 41.8971 15.7879 39.4305C16.7212 36.9305 17.6546 34.4305 18.5879 31.9305C19.5546 29.3971 20.4379 27.1305 21.2379 25.1305C21.5046 24.9971 21.9046 24.8638 22.4379 24.7305C22.9712 24.5971 23.5212 24.5305 24.0879 24.5305C24.7546 24.5305 25.3879 24.6305 25.9879 24.8305C26.6212 25.0305 27.0212 25.3638 27.1879 25.8305C27.9879 27.7638 28.8379 29.9805 29.7379 32.4805C30.6712 34.9471 31.6046 37.4805 32.5379 40.0805C33.4712 42.6805 34.3546 45.2471 35.1879 47.7805C36.0546 50.2805 36.8212 52.5471 37.4879 54.5805C37.2212 54.8805 36.9046 55.1138 36.5379 55.2805C36.1712 55.4805 35.7546 55.5805 35.2879 55.5805C34.6546 55.5805 34.1712 55.4471 33.8379 55.1805C33.5046 54.8805 33.2212 54.3971 32.9879 53.7305L30.7379 47.0805ZM24.0379 27.9305C23.6712 28.9305 23.2546 30.0805 22.7879 31.3805C22.3212 32.6471 21.8379 33.9805 21.3379 35.3805C20.8379 36.7805 20.3379 38.1971 19.8379 39.6305C19.3379 41.0638 18.8712 42.4305 18.4379 43.7305H29.6879C29.1879 42.2305 28.6712 40.7305 28.1379 39.2305C27.6046 37.6971 27.0879 36.2305 26.5879 34.8305C26.1212 33.4305 25.6712 32.1471 25.2379 30.9805C24.8379 29.7805 24.5046 28.7638 24.2379 27.9305H24.0379ZM45.5777 55.4305C44.1111 55.4305 43.3777 54.8305 43.3777 53.6305V25.3805C43.9777 24.7805 44.8777 24.4805 46.0777 24.4805C46.8777 24.4805 47.5611 24.6471 48.1277 24.9805C48.6944 25.2805 49.2111 25.8471 49.6777 26.6805L59.2277 42.6805C59.6277 43.3805 60.0444 44.1305 60.4777 44.9305C60.9111 45.6971 61.3277 46.4805 61.7277 47.2805C62.1277 48.0471 62.4944 48.7805 62.8277 49.4805C63.1944 50.1471 63.4944 50.7138 63.7277 51.1805L63.9277 51.1305C63.6611 48.4305 63.4944 45.7138 63.4277 42.9805C63.3944 40.2471 63.3777 37.5805 63.3777 34.9805V24.8805C63.5777 24.8138 63.8444 24.7471 64.1777 24.6805C64.5111 24.5805 64.8777 24.5305 65.2777 24.5305C66.7444 24.5305 67.4777 25.1305 67.4777 26.3305V54.6305C67.1777 54.8971 66.7944 55.0971 66.3277 55.2305C65.8611 55.3971 65.3444 55.4805 64.7777 55.4805C63.9777 55.4805 63.2944 55.3305 62.7277 55.0305C62.1611 54.6971 61.6444 54.1138 61.1777 53.2805L51.6777 37.2805C51.2777 36.6138 50.8444 35.8805 50.3777 35.0805C49.9444 34.2805 49.5111 33.4971 49.0777 32.7305C48.6777 31.9638 48.2944 31.2305 47.9277 30.5305C47.5944 29.8305 47.3111 29.2471 47.0777 28.7805L46.8777 28.8305C47.0444 30.4305 47.1777 32.2638 47.2777 34.3305C47.3777 36.3638 47.4277 38.2971 47.4277 40.1305V55.0805C47.2611 55.1471 46.9944 55.2138 46.6277 55.2805C46.2944 55.3805 45.9444 55.4305 45.5777 55.4305Z" fill="black"/>
</svg>
