<svg width="738" height="120" viewBox="0 0 738 120" fill="none" xmlns="http://www.w3.org/2000/svg">
<path d="M70.7696 55.44C70.7696 59.76 68.053 63.32 62.6199 66.12C57.3192 68.84 50.8922 70.2 43.3388 70.2C34.0627 70.2 25.5817 68.4 17.8958 64.8C10.2098 61.2 4.57793 56.88 1 51.84L8.95095 49.68C11.8663 53.76 16.4381 57.32 22.6663 60.36C29.0271 63.4 35.9179 64.92 43.3388 64.92C48.3744 64.92 52.7474 64.04 56.4579 62.28C60.1683 60.52 62.0235 58.24 62.0235 55.44C62.0235 53.2 61.2947 51.36 59.837 49.92C58.3793 48.48 56.1928 47.48 53.2775 46.92C50.3621 46.28 47.513 45.88 44.7302 45.72C42.0799 45.48 38.7007 45.36 34.5928 45.36H33.0026V40.2H34.5928C40.9535 40.2 45.5916 39.4 48.5069 37.8C51.5548 36.12 53.0787 34.16 53.0787 31.92C53.0787 29.68 51.5548 27.84 48.5069 26.4C45.5916 24.88 42.0799 24.12 37.9719 24.12C30.4185 24.12 24.3228 26.12 19.6847 30.12L12.5289 27.24C15.1792 24.84 18.7571 22.84 23.2627 21.24C27.7682 19.64 32.6713 18.84 37.9719 18.84C44.3327 18.84 49.8983 20.12 54.6689 22.68C59.4395 25.16 61.8248 28.24 61.8248 31.92C61.8248 35.44 59.6382 38.52 55.2652 41.16C57.783 41.88 60.2346 42.96 62.6199 44.4C66.7278 46.72 71.4984 47.88 76.9316 47.88C83.9549 47.88 89.7193 46.08 94.2249 42.48V27H76.1365V21.72H128.414V27H102.971V69.36C102.971 70.24 103.501 71.04 104.561 71.76C105.621 72.4 106.88 72.72 108.338 72.72C110.458 72.72 111.982 72.24 112.91 71.28L120.264 74.16C117.481 76.72 113.506 78 108.338 78C104.362 78 100.983 77.16 98.2003 75.48C95.55 73.72 94.2249 71.68 94.2249 69.36V49.32C89.0568 51.56 83.2923 52.68 76.9316 52.68C75.2089 52.68 73.0223 52.52 70.372 52.2C70.6371 52.76 70.7696 53.84 70.7696 55.44Z" fill="#1F1F1F"/>
<path d="M147.782 27V53.04C147.782 55.12 149.173 56.92 151.956 58.44C154.739 59.88 157.986 60.6 161.696 60.6C165.407 60.6 168.587 59.88 171.237 58.44C173.888 56.92 175.213 55.12 175.213 53.04V27H147.782ZM220.334 78C216.491 78 213.179 77.16 210.396 75.48C207.613 73.72 206.221 71.68 206.221 69.36V27H183.959V53.04C183.959 56.4 181.772 59.32 177.399 61.8C173.159 64.2 167.924 65.4 161.696 65.4C155.468 65.4 150.101 64.2 145.595 61.8C141.222 59.4 139.036 56.48 139.036 53.04V27H121.941V21.72H240.411V27H214.967V69.36C214.967 70.24 215.498 71.04 216.558 71.76C217.75 72.4 219.009 72.72 220.334 72.72C222.322 72.72 223.846 72.24 224.906 71.28L232.261 74.16C229.478 76.72 225.502 78 220.334 78Z" fill="#1F1F1F"/>
<path d="M230.094 5.52L223.734 9.12C221.613 7.68 218.897 6.96 215.584 6.96C213.066 6.96 211.078 7.44 209.621 8.40001C208.031 9.28 207.235 10.48 207.235 12C207.235 13.92 208.627 15.84 211.41 17.76C214.193 19.68 217.439 21.16 221.15 22.2L217.373 27C212.602 25.64 208.296 23.68 204.453 21.12C200.477 18.48 198.489 15.44 198.489 12C198.489 9.04 200.146 6.6 203.459 4.68C206.639 2.68 210.681 1.68 215.584 1.68C221.282 1.68 226.119 2.96 230.094 5.52Z" fill="#1F1F1F"/>
<path d="M287.411 45.36C287.411 47.68 286.02 49.72 283.237 51.48C280.454 53.16 277.141 54 273.298 54C268.13 54 264.155 52.72 261.372 50.16L268.726 47.28C269.787 48.24 271.31 48.72 273.298 48.72C274.756 48.72 276.015 48.4 277.075 47.76C278.135 47.04 278.665 46.24 278.665 45.36C278.665 43.92 277.738 42.8 275.882 42C274.16 41.12 272.039 40.68 269.522 40.68C265.414 40.68 261.703 41.72 258.39 43.8C255.077 45.88 253.421 48.2 253.421 50.76C253.421 53.32 255.011 55.56 258.191 57.48C261.504 59.32 265.347 60.24 269.72 60.24C275.949 60.24 281.249 58.6 285.622 55.32C290.128 52.04 293.242 48.6 294.965 45V27H234.14V21.72H329.154V27H303.711V69.36C303.711 70.24 304.241 71.04 305.301 71.76C306.493 72.4 307.819 72.72 309.276 72.72C311.397 72.72 312.92 72.24 313.848 71.28L321.203 74.16C318.42 76.72 314.444 78 309.276 78C305.433 78 302.054 77.16 299.139 75.48C296.356 73.72 294.965 71.68 294.965 69.36V56.28C288.736 62.44 280.322 65.52 269.72 65.52C262.829 65.52 256.933 64.08 252.029 61.2C247.126 58.32 244.675 54.84 244.675 50.76C244.675 46.68 247.126 43.12 252.029 40.08C256.933 36.96 262.763 35.4 269.522 35.4C274.425 35.4 278.599 36.36 282.044 38.28C285.622 40.12 287.411 42.48 287.411 45.36Z" fill="#1F1F1F"/>
<path d="M408.655 21.72H434.496V27H409.45V69.36C409.45 70.24 409.981 71.04 411.041 71.76C412.101 72.4 413.36 72.72 414.817 72.72C416.805 72.72 418.329 72.24 419.389 71.28L426.744 74.16C423.961 76.72 419.985 78 414.817 78C410.974 78 407.661 77.16 404.879 75.48C402.096 73.72 400.704 71.68 400.704 69.36V27H375.261V21.72H397.922C396.729 20.12 396.133 18.28 396.133 16.2C396.133 13 397.59 10.28 400.506 8.04C403.554 5.72 407.198 3.92 411.438 2.64C417.269 0.880001 424.624 0 433.502 0C472.727 0 499.561 7.76 514.005 23.28L506.054 25.44C492.538 12 468.354 5.28 433.502 5.28C425.684 5.28 419.588 5.96 415.215 7.32C408.324 9.32 404.879 12.28 404.879 16.2C404.879 18.36 406.138 20.2 408.655 21.72Z" fill="#1F1F1F"/>
<path d="M461.848 48.84H456.481C449.325 48.84 445.747 50.36 445.747 53.4C445.747 54.44 446.343 55.36 447.536 56.16C448.728 56.88 450.186 57.24 451.909 57.24C455.222 57.24 457.872 55.84 459.86 53.04C460.787 51.92 461.45 50.52 461.848 48.84ZM513.727 78C509.885 78 506.505 77.16 503.59 75.48C500.807 73.72 499.416 71.68 499.416 69.36V48.84H470.594C470.196 50.68 469.268 52.72 467.811 54.96C464.63 60 459.33 62.52 451.909 62.52C447.668 62.52 444.09 61.64 441.175 59.88C438.392 58.04 437.001 55.88 437.001 53.4C437.001 50.2 438.922 47.76 442.765 46.08C446.608 44.4 451.18 43.56 456.481 43.56H499.416V27H428.255V21.72H533.605V27H508.162V69.36C508.162 70.16 508.758 70.92 509.951 71.64C511.143 72.36 512.402 72.72 513.727 72.72C515.848 72.72 517.372 72.24 518.299 71.28L525.654 74.16C522.871 76.72 518.896 78 513.727 78Z" fill="#1F1F1F"/>
<path d="M560.846 48.84H555.479C548.323 48.84 544.745 50.32 544.745 53.28C544.745 54.4 545.342 55.36 546.534 56.16C547.727 56.88 549.185 57.24 550.907 57.24C555.678 57.24 558.991 54.44 560.846 48.84ZM527.253 21.72H639.759V27H614.316V69.36C614.316 70.24 614.846 71.04 615.906 71.76C616.967 72.4 618.225 72.72 619.683 72.72C621.671 72.72 623.195 72.24 624.255 71.28L631.61 74.16C628.827 76.72 624.851 78 619.683 78C615.84 78 612.527 77.16 609.744 75.48C606.962 73.72 605.57 71.68 605.57 69.36V27H570.188V43.56C570.188 47.88 569.062 51.68 566.809 54.96C563.629 60 558.328 62.52 550.907 62.52C546.667 62.52 543.089 61.6 540.174 59.76C537.391 57.92 535.999 55.76 535.999 53.28C535.999 50 537.921 47.56 541.764 45.96C545.607 44.36 550.245 43.56 555.678 43.56H561.442V27H527.253V21.72Z" fill="#1F1F1F"/>
<path d="M674.585 46.44H702.811V27H674.585V46.44ZM665.243 51.72H660.273C652.852 51.72 649.142 53.2 649.142 56.16C649.142 57.28 649.738 58.24 650.931 59.04C652.124 59.76 653.581 60.12 655.304 60.12C660.075 60.12 663.387 57.32 665.243 51.72ZM717.123 78C713.28 78 709.901 77.16 706.985 75.48C704.202 73.72 702.811 71.68 702.811 69.36V51.72H673.989C673.591 53.56 672.664 55.6 671.206 57.84C668.026 62.88 662.725 65.4 655.304 65.4C651.064 65.4 647.486 64.48 644.57 62.64C641.787 60.8 640.396 58.64 640.396 56.16C640.396 52.8 642.317 50.36 646.16 48.84C650.003 47.24 654.708 46.44 660.273 46.44H665.839V27H633.24V21.72H737V27H711.557V69.36C711.557 70.16 712.153 70.92 713.346 71.64C714.539 72.36 715.797 72.72 717.123 72.72C719.243 72.72 720.767 72.24 721.694 71.28L729.049 74.16C726.266 76.72 722.291 78 717.123 78Z" fill="#1F1F1F"/>
<path d="M1 85.5C25.5333 75.5 50.0667 75.5 74.6 85.5C99.1333 95.5 123.667 95.5 148.2 85.5C172.733 75.5 197.267 75.5 221.8 85.5C246.333 95.5 270.867 95.5 295.4 85.5C319.933 75.5 344.467 75.5 369 85.5C393.533 95.5 418.067 95.5 442.6 85.5C467.133 75.5 491.667 75.5 516.2 85.5C540.733 95.5 565.267 95.5 589.8 85.5C614.333 75.5 638.867 75.5 663.4 85.5C687.933 95.5 712.467 95.5 737 85.5" stroke="#0632B8" stroke-width="4"/>
</svg>
