<svg width="737" height="121" viewBox="0 0 737 121" fill="none" xmlns="http://www.w3.org/2000/svg">
<path d="M0.611328 86.4559C0.611328 86.4559 272.762 86.4559 368.611 72.7205C464.46 58.9851 736.611 86.4559 736.611 86.4559C736.611 86.4559 464.945 69.3509 353.456 86.4559C250.718 96.4334 0.611328 86.4559 0.611328 86.4559Z" fill="#FFAB40"/>
<path d="M4.81133 81.4104H14.6513C20.1713 68.2104 25.6913 55.1704 31.2113 42.2904C36.8113 29.3304 42.3713 16.2504 47.8913 3.05037C53.4113 16.2504 58.9313 29.3304 64.4513 42.2904C70.0513 55.1704 75.6113 68.2104 81.1313 81.4104H90.9713V90.8904H64.3313V81.4104H71.0513C69.3713 77.4104 67.6913 73.4504 66.0113 69.5304C64.4113 65.6104 62.7713 61.6504 61.0913 57.6504H34.6913L24.6113 81.4104H31.4513V90.8904H4.81133V81.4104ZM48.9713 29.0904L47.7713 25.1304C47.6913 25.2904 47.6113 25.5704 47.5313 25.9704C47.4513 26.3704 47.3313 26.8104 47.1713 27.2904C47.0113 27.8504 46.8113 28.4504 46.5713 29.0904C45.5313 31.4104 44.5713 33.6904 43.6913 35.9304C42.8913 37.8504 42.0513 39.9304 41.1713 42.1704C40.2913 44.4104 39.4913 46.4104 38.7713 48.1704H57.0113L48.9713 29.0904ZM99.3816 86.0904H108.742V50.6904H100.102V45.8904H112.822L112.942 50.0904C113.022 51.4504 113.102 52.6904 113.182 53.8104C113.262 54.9304 113.302 56.1704 113.302 57.5304C115.142 53.6104 117.822 50.5704 121.342 48.4104C124.942 46.1704 128.582 45.0104 132.262 44.9304L131.902 49.8504C129.342 49.9304 126.942 50.4104 124.702 51.2904C122.542 52.0904 120.622 53.2104 118.942 54.6504C117.342 56.0904 116.062 57.8104 115.102 59.8104C114.142 61.8104 113.662 63.9704 113.662 66.2904V86.0904H122.542V90.8904H99.3816V86.0904ZM174.472 86.0904H183.832V59.6904C183.672 57.1304 182.712 54.8904 180.952 52.9704C179.272 51.0504 176.752 50.0104 173.392 49.8504C170.992 49.8504 168.672 50.2904 166.432 51.1704C164.192 51.9704 162.192 53.0904 160.432 54.5304C158.752 55.9704 157.392 57.6904 156.352 59.6904C155.392 61.6904 154.912 63.8904 154.912 66.2904V86.0904H163.792V90.8904H140.632V86.0904H149.992V50.6904H141.352V45.8904H154.072L154.192 50.0904C154.272 51.4504 154.352 52.6904 154.432 53.8104C154.512 54.9304 154.552 56.1704 154.552 57.5304C156.152 53.7704 158.712 50.7304 162.232 48.4104C165.832 46.0904 169.872 44.9304 174.352 44.9304C178.752 44.9304 182.232 46.1704 184.792 48.6504C187.352 51.1304 188.712 54.3704 188.872 58.3704V86.0904H197.632V90.8904H174.472V86.0904ZM206.022 68.3304C206.022 65.1304 206.622 62.1304 207.822 59.3304C209.102 56.4504 210.782 53.9704 212.862 51.8904C215.022 49.7304 217.542 48.0504 220.422 46.8504C223.302 45.5704 226.382 44.9304 229.662 44.9304C231.982 44.9304 234.182 45.2904 236.262 46.0104C238.342 46.6504 240.222 47.5304 241.902 48.6504C243.582 49.6904 244.982 50.9304 246.102 52.3704C247.302 53.7304 248.182 55.0904 248.742 56.4504C248.742 54.6904 248.782 52.9304 248.862 51.1704C249.022 49.4104 249.142 47.6504 249.222 45.8904H253.302V86.0904H262.182V90.8904H248.742V86.0904C248.742 85.1304 248.742 84.2104 248.742 83.3304C248.822 82.3704 248.862 81.4504 248.862 80.5704C248.302 81.9304 247.422 83.2904 246.222 84.6504C245.102 86.0104 243.702 87.2104 242.022 88.2504C240.422 89.2904 238.542 90.1304 236.382 90.7704C234.302 91.4104 232.062 91.7304 229.662 91.7304C226.382 91.7304 223.302 91.1304 220.422 89.9304C217.542 88.6504 215.022 86.9704 212.862 84.8904C210.782 82.8104 209.102 80.3704 207.822 77.5704C206.622 74.6904 206.022 71.6104 206.022 68.3304ZM211.062 68.3304C211.062 70.8904 211.542 73.2904 212.502 75.5304C213.462 77.7704 214.742 79.7304 216.342 81.4104C218.022 83.0904 219.982 84.4104 222.222 85.3704C224.542 86.3304 227.022 86.8104 229.662 86.8104C232.302 86.8104 234.742 86.3304 236.982 85.3704C239.222 84.4104 241.182 83.0904 242.862 81.4104C244.542 79.7304 245.862 77.7704 246.822 75.5304C247.782 73.2904 248.262 70.8904 248.262 68.3304C248.262 65.7704 247.782 63.3704 246.822 61.1304C245.862 58.8104 244.542 56.8104 242.862 55.1304C241.182 53.4504 239.222 52.1304 236.982 51.1704C234.742 50.2104 232.302 49.7304 229.662 49.7304C227.022 49.7304 224.542 50.2104 222.222 51.1704C219.982 52.1304 218.022 53.4504 216.342 55.1304C214.742 56.8104 213.462 58.8104 212.502 61.1304C211.542 63.3704 211.062 65.7704 211.062 68.3304ZM270.593 45.8904H292.793V50.6904H284.993C287.953 56.2904 290.873 61.9304 293.753 67.6104C296.633 73.2904 299.353 78.9304 301.913 84.5304C304.313 79.2504 306.953 73.7304 309.833 67.9704C312.793 62.2104 315.753 56.4504 318.713 50.6904H311.753V45.8904H332.753V50.6904H323.993C320.313 57.9704 316.633 65.1704 312.953 72.2904C309.273 79.3304 305.593 86.4504 301.913 93.6504C298.153 86.4504 294.433 79.3304 290.753 72.2904C287.153 65.1704 283.513 57.9704 279.833 50.6904H270.593V45.8904ZM377.116 81.4104H387.556V16.3704H377.116V6.89038H391.036L448.996 69.6504L451.276 72.7704L450.916 68.9304V16.3704H442.276V6.89038H471.316V16.3704H460.876V94.7304L399.436 29.4504L397.156 26.3304L397.516 30.1704V81.4104H406.156V90.8904H377.116V81.4104ZM479.772 86.0904H489.012V50.6904H479.772V45.8904H494.052V86.0904H502.932V90.8904H479.772V86.0904ZM487.692 29.9304C487.692 28.8104 488.092 27.8904 488.892 27.1704C489.692 26.3704 490.612 25.9704 491.652 25.9704C492.612 25.9704 493.492 26.3704 494.292 27.1704C495.092 27.8904 495.492 28.8104 495.492 29.9304C495.492 31.0504 495.092 32.0104 494.292 32.8104C493.492 33.5304 492.612 33.8904 491.652 33.8904C490.612 33.8904 489.692 33.5304 488.892 32.8104C488.092 32.0104 487.692 31.0504 487.692 29.9304ZM554.496 45.8904H567.576V50.6904H558.576V95.0904C558.576 99.0104 557.976 102.53 556.776 105.65C555.576 108.85 553.936 111.57 551.856 113.81C549.776 116.05 547.336 117.77 544.536 118.97C541.816 120.17 538.856 120.81 535.656 120.89C532.296 120.81 528.896 120.17 525.456 118.97C522.096 117.77 519.336 116.01 517.176 113.69L520.776 109.97C522.536 111.89 524.776 113.33 527.496 114.29C530.216 115.25 532.896 115.73 535.536 115.73C538.016 115.73 540.336 115.21 542.496 114.17C544.736 113.21 546.656 111.81 548.256 109.97C549.856 108.13 551.136 105.89 552.096 103.25C553.056 100.69 553.536 97.8504 553.536 94.7304V86.0904C553.616 85.2104 553.696 84.3304 553.776 83.4504C553.856 82.4904 553.936 81.5704 554.016 80.6904C553.376 82.1304 552.456 83.5304 551.256 84.8904C550.136 86.1704 548.736 87.3304 547.056 88.3704C545.456 89.3304 543.616 90.1304 541.536 90.7704C539.456 91.4104 537.256 91.7304 534.936 91.7304C531.656 91.7304 528.576 91.1304 525.696 89.9304C522.816 88.6504 520.296 86.9704 518.136 84.8904C516.056 82.8104 514.376 80.3704 513.096 77.5704C511.896 74.6904 511.296 71.6104 511.296 68.3304C511.296 65.1304 511.896 62.1304 513.096 59.3304C514.376 56.4504 516.056 53.9704 518.136 51.8904C520.296 49.7304 522.816 48.0504 525.696 46.8504C528.576 45.5704 531.656 44.9304 534.936 44.9304C537.256 44.9304 539.456 45.2904 541.536 46.0104C543.616 46.6504 545.496 47.5304 547.176 48.6504C548.856 49.6904 550.256 50.9304 551.376 52.3704C552.576 53.7304 553.456 55.0904 554.016 56.4504C554.016 54.6904 554.056 52.9304 554.136 51.1704C554.296 49.4104 554.416 47.6504 554.496 45.8904ZM516.336 68.3304C516.336 70.8904 516.816 73.2904 517.776 75.5304C518.736 77.7704 520.016 79.7304 521.616 81.4104C523.296 83.0904 525.256 84.4104 527.496 85.3704C529.816 86.3304 532.296 86.8104 534.936 86.8104C537.576 86.8104 540.016 86.3304 542.256 85.3704C544.496 84.4104 546.456 83.0904 548.136 81.4104C549.816 79.7304 551.136 77.7704 552.096 75.5304C553.056 73.2904 553.536 70.8904 553.536 68.3304C553.536 65.7704 553.056 63.3704 552.096 61.1304C551.136 58.8104 549.816 56.8104 548.136 55.1304C546.456 53.4504 544.496 52.1304 542.256 51.1704C540.016 50.2104 537.576 49.7304 534.936 49.7304C532.296 49.7304 529.816 50.2104 527.496 51.1704C525.256 52.1304 523.296 53.4504 521.616 55.1304C520.016 56.8104 518.736 58.8104 517.776 61.1304C516.816 63.3704 516.336 65.7704 516.336 68.3304ZM575.983 68.3304C575.983 65.1304 576.583 62.1304 577.783 59.3304C579.063 56.4504 580.743 53.9704 582.823 51.8904C584.983 49.7304 587.503 48.0504 590.383 46.8504C593.263 45.5704 596.343 44.9304 599.623 44.9304C601.943 44.9304 604.143 45.2904 606.223 46.0104C608.303 46.6504 610.183 47.5304 611.863 48.6504C613.543 49.6904 614.943 50.9304 616.063 52.3704C617.263 53.7304 618.143 55.0904 618.703 56.4504C618.703 54.6904 618.743 52.9304 618.823 51.1704C618.983 49.4104 619.103 47.6504 619.183 45.8904H623.263V86.0904H632.143V90.8904H618.703V86.0904C618.703 85.1304 618.703 84.2104 618.703 83.3304C618.783 82.3704 618.823 81.4504 618.823 80.5704C618.263 81.9304 617.383 83.2904 616.183 84.6504C615.063 86.0104 613.663 87.2104 611.983 88.2504C610.383 89.2904 608.503 90.1304 606.343 90.7704C604.263 91.4104 602.023 91.7304 599.623 91.7304C596.343 91.7304 593.263 91.1304 590.383 89.9304C587.503 88.6504 584.983 86.9704 582.823 84.8904C580.743 82.8104 579.063 80.3704 577.783 77.5704C576.583 74.6904 575.983 71.6104 575.983 68.3304ZM581.023 68.3304C581.023 70.8904 581.503 73.2904 582.463 75.5304C583.423 77.7704 584.703 79.7304 586.303 81.4104C587.983 83.0904 589.943 84.4104 592.183 85.3704C594.503 86.3304 596.983 86.8104 599.623 86.8104C602.263 86.8104 604.703 86.3304 606.943 85.3704C609.183 84.4104 611.143 83.0904 612.823 81.4104C614.503 79.7304 615.823 77.7704 616.783 75.5304C617.743 73.2904 618.223 70.8904 618.223 68.3304C618.223 65.7704 617.743 63.3704 616.783 61.1304C615.823 58.8104 614.503 56.8104 612.823 55.1304C611.143 53.4504 609.183 52.1304 606.943 51.1704C604.703 50.2104 602.263 49.7304 599.623 49.7304C596.983 49.7304 594.503 50.2104 592.183 51.1704C589.943 52.1304 587.983 53.4504 586.303 55.1304C584.703 56.8104 583.423 58.8104 582.463 61.1304C581.503 63.3704 581.023 65.7704 581.023 68.3304ZM708.354 86.0904H717.714V59.6904C717.554 57.1304 716.594 54.8904 714.834 52.9704C713.154 51.0504 710.634 50.0104 707.274 49.8504C704.874 49.8504 702.554 50.2504 700.314 51.0504C698.074 51.8504 696.114 52.9704 694.434 54.4104C692.754 55.8504 691.394 57.5704 690.354 59.5704C689.394 61.4904 688.874 63.6104 688.794 65.9304V86.0904H697.674V90.8904H674.394V86.0904H683.754V59.6904C683.594 57.1304 682.634 54.8904 680.874 52.9704C679.194 51.0504 676.674 50.0104 673.314 49.8504C670.914 49.8504 668.594 50.2904 666.354 51.1704C664.114 51.9704 662.114 53.0904 660.354 54.5304C658.674 55.9704 657.314 57.6904 656.274 59.6904C655.314 61.6904 654.834 63.8904 654.834 66.2904V86.0904H663.714V90.8904H640.554V86.0904H649.914V50.6904H641.274V45.8904H653.994L654.114 50.0904C654.194 51.4504 654.274 52.6904 654.354 53.8104C654.434 54.9304 654.474 56.1704 654.474 57.5304C656.154 53.6904 658.714 50.6504 662.154 48.4104C665.674 46.1704 669.714 45.0104 674.274 44.9304C678.354 44.9304 681.634 46.0504 684.114 48.2904C686.674 50.4504 688.194 53.3304 688.674 56.9304C690.354 53.3304 692.914 50.4504 696.354 48.2904C699.794 46.1304 703.714 45.0104 708.114 44.9304C712.514 44.9304 715.994 46.1704 718.554 48.6504C721.114 51.1304 722.474 54.3704 722.634 58.3704V86.0904H731.514V90.8904H708.354V86.0904Z" fill="black"/>
</svg>
