<?xml version="1.0" encoding="utf-8"?>
<!-- Generator: Adobe Illustrator 23.0.3, SVG Export Plug-In . SVG Version: 6.00 Build 0)  -->
<svg version="1.1" id="Capa_1" xmlns="http://www.w3.org/2000/svg" xmlns:xlink="http://www.w3.org/1999/xlink" x="0px" y="0px"
	 viewBox="0 0 448 59" style="enable-background:new 0 0 448 59;" xml:space="preserve">
<style type="text/css">
	.st0{fill:#FDFDFD;}
	.st1{fill:#E06B96;}
</style>
<path class="st0" d="M33.07,20.83c2.25,1.7,3.8,4.02,4.66,6.97h-3.86c-0.72-1.88-1.89-3.37-3.5-4.48c-1.61-1.11-3.57-1.67-5.91-1.67
	c-1.85,0-3.5,0.45-4.96,1.35c-1.46,0.9-2.61,2.18-3.46,3.86c-0.84,1.68-1.26,3.64-1.26,5.89c0,2.23,0.42,4.17,1.26,5.83
	c0.85,1.66,1.99,2.94,3.46,3.84c1.46,0.9,3.12,1.35,4.96,1.35c2.33,0,4.3-0.56,5.91-1.67c1.61-1.11,2.77-2.6,3.5-4.48h3.86
	c-0.86,2.95-2.41,5.27-4.66,6.97c-2.25,1.7-5.1,2.55-8.56,2.55c-2.65,0-5-0.61-7.03-1.83c-2.04-1.22-3.62-2.92-4.76-5.1
	C11.57,38.02,11,35.53,11,32.74c0-2.81,0.57-5.32,1.71-7.51c1.14-2.19,2.73-3.9,4.76-5.12c2.04-1.22,4.38-1.83,7.03-1.83
	C27.96,18.28,30.81,19.13,33.07,20.83z"/>
<path class="st0" d="M67.58,46.89l-7.4-11.57h-3.98v11.57h-3.66V18.56h9.32c3.22,0,5.63,0.77,7.23,2.31
	c1.61,1.54,2.41,3.58,2.41,6.13c0,2.3-0.64,4.16-1.93,5.56c-1.28,1.41-3.15,2.29-5.59,2.63l7.72,11.69H67.58z M56.21,32.66h5.34
	c4.15,0,6.23-1.82,6.23-5.46s-2.08-5.47-6.23-5.47h-5.34V32.66z"/>
<path class="st0" d="M89.57,18.56v28.33h-3.66V18.56H89.57z"/>
<path class="st0" d="M122.32,43.27c-0.64,1.15-1.62,2.09-2.93,2.81c-1.31,0.72-2.93,1.08-4.86,1.08c-1.88,0-3.54-0.34-5-1.02
	s-2.63-1.62-3.5-2.81s-1.37-2.55-1.51-4.08h3.9c0.08,0.8,0.36,1.59,0.82,2.35c0.47,0.76,1.14,1.39,2.01,1.89
	c0.87,0.49,1.92,0.74,3.16,0.74c1.61,0,2.84-0.43,3.7-1.29c0.86-0.86,1.29-1.96,1.29-3.3c0-1.15-0.3-2.09-0.91-2.81
	c-0.6-0.72-1.35-1.29-2.23-1.71s-2.09-0.86-3.62-1.35c-1.8-0.59-3.24-1.15-4.32-1.67c-1.09-0.52-2.01-1.31-2.77-2.35
	c-0.76-1.05-1.15-2.43-1.15-4.14c0-1.47,0.35-2.77,1.06-3.9c0.71-1.12,1.73-1.99,3.05-2.61c1.33-0.62,2.89-0.92,4.68-0.92
	c2.78,0,5,0.67,6.63,2.03c1.63,1.35,2.58,3.07,2.85,5.16h-3.94c-0.22-1.13-0.79-2.12-1.73-2.98c-0.94-0.86-2.21-1.29-3.82-1.29
	c-1.47,0-2.65,0.38-3.54,1.15s-1.33,1.84-1.33,3.23c0,1.1,0.29,1.99,0.86,2.67c0.57,0.68,1.29,1.22,2.15,1.61
	c0.86,0.39,2.04,0.82,3.53,1.3c1.82,0.59,3.29,1.16,4.4,1.69c1.11,0.54,2.05,1.35,2.83,2.43c0.78,1.08,1.17,2.53,1.17,4.32
	C123.28,40.88,122.96,42.12,122.32,43.27z"/>
<path class="st1" d="M171.66,8.72l-10.81,45.73h-6.63l10.81-45.73H171.66z"/>
<path class="st0" d="M220.33,43.27c-0.64,1.15-1.62,2.09-2.93,2.81c-1.31,0.72-2.93,1.08-4.86,1.08c-1.88,0-3.54-0.34-5-1.02
	s-2.63-1.62-3.5-2.81s-1.37-2.55-1.51-4.08h3.9c0.08,0.8,0.36,1.59,0.82,2.35c0.47,0.76,1.14,1.39,2.01,1.89
	c0.87,0.49,1.92,0.74,3.16,0.74c1.61,0,2.84-0.43,3.7-1.29c0.86-0.86,1.29-1.96,1.29-3.3c0-1.15-0.3-2.09-0.91-2.81
	c-0.6-0.72-1.35-1.29-2.23-1.71c-0.88-0.42-2.09-0.86-3.62-1.35c-1.8-0.59-3.24-1.15-4.32-1.67c-1.09-0.52-2.01-1.31-2.77-2.35
	c-0.76-1.05-1.15-2.43-1.15-4.14c0-1.47,0.35-2.77,1.06-3.9c0.71-1.12,1.73-1.99,3.05-2.61c1.33-0.62,2.89-0.92,4.68-0.92
	c2.78,0,4.99,0.67,6.63,2.03c1.63,1.35,2.58,3.07,2.85,5.16h-3.94c-0.22-1.13-0.79-2.12-1.73-2.98c-0.94-0.86-2.21-1.29-3.82-1.29
	c-1.47,0-2.65,0.38-3.54,1.15c-0.88,0.76-1.33,1.84-1.33,3.23c0,1.1,0.29,1.99,0.86,2.67c0.57,0.68,1.29,1.22,2.15,1.61
	c0.86,0.39,2.04,0.82,3.53,1.3c1.82,0.59,3.29,1.16,4.4,1.69c1.11,0.54,2.05,1.35,2.83,2.43c0.78,1.08,1.17,2.53,1.17,4.32
	C221.29,40.88,220.97,42.12,220.33,43.27z"/>
<path class="st0" d="M252.71,40.34h-12.46l-2.37,6.55h-3.94l10.49-27.81h4.14l10.45,27.81h-3.94L252.71,40.34z M251.67,37.49
	l-5.18-14.3l-5.19,14.3H251.67z"/>
<path class="st0" d="M276.3,44.04h10.05v2.85h-13.7V18.56h3.66V44.04z"/>
<path class="st0" d="M322.15,40.2c-1.15,2.13-2.85,3.78-5.08,4.94c-2.24,1.17-4.92,1.75-8.06,1.75h-9V18.56h9
	c3.13,0,5.82,0.57,8.06,1.71c2.24,1.14,3.93,2.78,5.08,4.9s1.73,4.64,1.73,7.53C323.88,35.57,323.31,38.07,322.15,40.2z
	 M317.21,40.74c1.95-1.9,2.93-4.58,2.93-8.04s-0.97-6.14-2.92-8.06c-1.94-1.91-4.77-2.87-8.5-2.87h-5.06V43.6h5.06
	C312.43,43.6,315.26,42.64,317.21,40.74z"/>
<path class="st0" d="M355.35,40.34h-12.46l-2.37,6.55h-3.94l10.49-27.81h4.14l10.45,27.81h-3.94L355.35,40.34z M354.3,37.49
	l-5.18-14.3l-5.19,14.3H354.3z"/>
<path class="st0" d="M397.3,46.89h-3.66l-14.71-22.38v22.38h-3.66V18.56h3.66l14.71,22.42V18.56h3.66V46.89z M385.24,12.25
	c0.4,0.19,0.84,0.46,1.33,0.81c0.48,0.32,0.86,0.55,1.15,0.68c0.28,0.13,0.61,0.2,0.98,0.2c0.48,0,0.88-0.16,1.19-0.48
	c0.31-0.32,0.5-0.79,0.58-1.41h2.05c-0.19,1.34-0.62,2.37-1.31,3.09c-0.68,0.72-1.55,1.09-2.59,1.09c-0.56,0-1.05-0.09-1.47-0.28
	c-0.42-0.19-0.88-0.46-1.39-0.81c-0.4-0.29-0.75-0.51-1.04-0.64c-0.3-0.13-0.62-0.2-0.96-0.2c-0.99,0-1.57,0.63-1.73,1.89h-2.01
	c0.21-1.42,0.65-2.48,1.3-3.17c0.66-0.7,1.51-1.05,2.55-1.05C384.39,11.97,384.84,12.06,385.24,12.25z"/>
<path class="st0" d="M429.69,40.34h-12.46l-2.37,6.55h-3.94l10.49-27.81h4.14L436,46.89h-3.94L429.69,40.34z M428.64,37.49
	l-5.18-14.3l-5.19,14.3H428.64z"/>
</svg>
